<?xml version="1.0" encoding="UTF-8" standalone="no"?>
<!DOCTYPE svg PUBLIC "-//W3C//DTD SVG 1.1//EN" "http://www.w3.org/Graphics/SVG/1.1/DTD/svg11.dtd">
<svg width="100%" height="100%" viewBox="0 0 1192 693" version="1.1" xmlns="http://www.w3.org/2000/svg" xmlns:xlink="http://www.w3.org/1999/xlink" xml:space="preserve" xmlns:serif="http://www.serif.com/" style="fill-rule:evenodd;clip-rule:evenodd;stroke-linecap:round;stroke-miterlimit:10;">
    <rect x="0" y="0" width="1192" height="693" style="fill:rgb(215,215,215);"/>
    <rect x="101.646" y="92.616" width="225.049" height="69.295" style="fill:rgb(179,254,255);"/>
    <path d="M327.945,92.616L327.945,161.911C327.945,162.601 327.385,163.161 326.695,163.161L101.646,163.161C100.955,163.161 100.396,162.601 100.396,161.911L100.396,92.616C100.396,91.926 100.955,91.366 101.646,91.366L326.695,91.366C327.385,91.366 327.945,91.926 327.945,92.616ZM326.695,92.616L101.646,92.616L101.646,161.911L326.695,161.911L326.695,92.616Z"/>
    <g transform="matrix(25,0,0,25,311.87,135.161)">
    </g>
    <text x="117.106px" y="135.161px" style="font-family:'Aptos', sans-serif;font-size:25px;">Al<tspan x="138.127px " y="135.161px ">l</tspan> Audio S<tspan x="231.535px " y="135.161px ">a</tspan>mple<tspan x="299.724px " y="135.161px ">s</tspan></text>
    <g transform="matrix(1,0,0,1,101.081,120.153)">
        <rect x="101.646" y="92.616" width="225.049" height="69.295" style="fill:rgb(255,183,0);"/>
        <path d="M327.945,92.616L327.945,161.911C327.945,162.601 327.385,163.161 326.695,163.161L101.646,163.161C100.955,163.161 100.396,162.601 100.396,161.911L100.396,92.616C100.396,91.926 100.955,91.366 101.646,91.366L326.695,91.366C327.385,91.366 327.945,91.926 327.945,92.616ZM326.695,92.616L101.646,92.616L101.646,161.911L326.695,161.911L326.695,92.616Z"/>
    </g>
    <g transform="matrix(1,0,0,1,101.081,120.153)">
        <g transform="matrix(25,0,0,25,285.069,135.161)">
        </g>
        <text x="143.907px" y="135.161px" style="font-family:'Aptos', sans-serif;font-size:25px;">Lef<tspan x="177.305px 185.386px 190.465px 204.735px " y="135.161px 135.161px 135.161px 135.161px ">t Sa</tspan>mple<tspan x="272.923px " y="135.161px ">s</tspan></text>
    </g>
    <g transform="matrix(1,0,0,1,596.953,41.9583)">
        <rect x="101.646" y="92.616" width="225.049" height="69.295" style="fill:rgb(209,126,225);"/>
        <path d="M327.945,92.616L327.945,161.911C327.945,162.601 327.385,163.161 326.695,163.161L101.646,163.161C100.955,163.161 100.396,162.601 100.396,161.911L100.396,92.616C100.396,91.926 100.955,91.366 101.646,91.366L326.695,91.366C327.385,91.366 327.945,91.926 327.945,92.616ZM326.695,92.616L101.646,92.616L101.646,161.911L326.695,161.911L326.695,92.616Z"/>
    </g>
    <g transform="matrix(1,0,0,1,596.953,41.9583)">
        <g transform="matrix(25,0,0,25,309.666,135.161)">
        </g>
        <text x="119.31px" y="135.161px" style="font-family:'Aptos', sans-serif;font-size:25px;">Lef<tspan x="152.708px 160.789px " y="135.161px 135.161px ">t </tspan>Lo<tspan x="191.966px 209.984px 215.062px 229.332px " y="135.161px 135.161px 135.161px 135.161px ">w Sa</tspan>mple<tspan x="297.52px " y="135.161px ">s</tspan></text>
    </g>
    <g transform="matrix(1,0,0,1,596.953,120.153)">
        <rect x="101.646" y="92.616" width="225.049" height="69.295" style="fill:rgb(112,177,226);"/>
        <path d="M327.945,92.616L327.945,161.911C327.945,162.601 327.385,163.161 326.695,163.161L101.646,163.161C100.955,163.161 100.396,162.601 100.396,161.911L100.396,92.616C100.396,91.926 100.955,91.366 101.646,91.366L326.695,91.366C327.385,91.366 327.945,91.926 327.945,92.616ZM326.695,92.616L101.646,92.616L101.646,161.911L326.695,161.911L326.695,92.616Z"/>
    </g>
    <g transform="matrix(1,0,0,1,596.953,120.153)">
        <g transform="matrix(25,0,0,25,307.475,135.161)">
        </g>
        <text x="121.501px" y="135.161px" style="font-family:'Aptos', sans-serif;font-size:25px;">Lef<tspan x="154.899px 162.98px " y="135.161px 135.161px ">t </tspan>Mid S<tspan x="227.141px " y="135.161px ">a</tspan>mple<tspan x="295.329px " y="135.161px ">s</tspan></text>
    </g>
    <g transform="matrix(1,0,0,1,596.953,198.348)">
        <rect x="101.646" y="92.616" width="225.049" height="69.295" style="fill:rgb(0,231,195);"/>
        <path d="M327.945,92.616L327.945,161.911C327.945,162.601 327.385,163.161 326.695,163.161L101.646,163.161C100.955,163.161 100.396,162.601 100.396,161.911L100.396,92.616C100.396,91.926 100.955,91.366 101.646,91.366L326.695,91.366C327.385,91.366 327.945,91.926 327.945,92.616ZM326.695,92.616L101.646,92.616L101.646,161.911L326.695,161.911L326.695,92.616Z"/>
    </g>
    <g transform="matrix(1,0,0,1,596.953,198.348)">
        <g transform="matrix(25,0,0,25,312.376,135.161)">
        </g>
        <text x="116.6px" y="135.161px" style="font-family:'Aptos', sans-serif;font-size:25px;">Lef<tspan x="149.998px 158.079px " y="135.161px 135.161px ">t </tspan>High S<tspan x="232.042px " y="135.161px ">a</tspan>mple<tspan x="300.23px " y="135.161px ">s</tspan></text>
    </g>
    <g transform="matrix(1,0,0,1,596.953,289.258)">
        <rect x="101.646" y="92.616" width="225.049" height="69.295" style="fill:rgb(209,126,225);"/>
        <path d="M327.945,92.616L327.945,161.911C327.945,162.601 327.385,163.161 326.695,163.161L101.646,163.161C100.955,163.161 100.396,162.601 100.396,161.911L100.396,92.616C100.396,91.926 100.955,91.366 101.646,91.366L326.695,91.366C327.385,91.366 327.945,91.926 327.945,92.616ZM326.695,92.616L101.646,92.616L101.646,161.911L326.695,161.911L326.695,92.616Z"/>
    </g>
    <g transform="matrix(1,0,0,1,584.238,289.258)">
        <g transform="matrix(25,0,0,25,329.186,135.161)">
        </g>
        <text x="125.219px" y="135.161px" style="font-family:'Aptos', sans-serif;font-size:25px;">Right Lo<tspan x="211.486px 229.504px 234.582px 248.852px " y="135.161px 135.161px 135.161px 135.161px ">w Sa</tspan>mple<tspan x="317.04px " y="135.161px ">s</tspan></text>
    </g>
    <g transform="matrix(1,0,0,1,596.953,367.453)">
        <rect x="101.646" y="92.616" width="225.049" height="69.295" style="fill:rgb(112,177,226);"/>
        <path d="M327.945,92.616L327.945,161.911C327.945,162.601 327.385,163.161 326.695,163.161L101.646,163.161C100.955,163.161 100.396,162.601 100.396,161.911L100.396,92.616C100.396,91.926 100.955,91.366 101.646,91.366L326.695,91.366C327.385,91.366 327.945,91.926 327.945,92.616ZM326.695,92.616L101.646,92.616L101.646,161.911L326.695,161.911L326.695,92.616Z"/>
    </g>
    <g transform="matrix(1,0,0,1,596.953,367.453)">
        <g transform="matrix(25,0,0,25,314.28,135.161)">
        </g>
        <text x="114.696px" y="135.161px" style="font-family:'Aptos', sans-serif;font-size:25px;">Right Mid S<tspan x="233.946px " y="135.161px ">a</tspan>mple<tspan x="302.134px " y="135.161px ">s</tspan></text>
    </g>
    <g transform="matrix(1,0,0,1,596.953,445.648)">
        <rect x="101.646" y="92.616" width="225.049" height="69.295" style="fill:rgb(0,231,195);"/>
        <path d="M327.945,92.616L327.945,161.911C327.945,162.601 327.385,163.161 326.695,163.161L101.646,163.161C100.955,163.161 100.396,162.601 100.396,161.911L100.396,92.616C100.396,91.926 100.955,91.366 101.646,91.366L326.695,91.366C327.385,91.366 327.945,91.926 327.945,92.616ZM326.695,92.616L101.646,92.616L101.646,161.911L326.695,161.911L326.695,92.616Z"/>
    </g>
    <g transform="matrix(1,0,0,1,584.238,445.648)">
        <g transform="matrix(25,0,0,25,331.896,135.161)">
        </g>
        <text x="122.509px" y="135.161px" style="font-family:'Aptos', sans-serif;font-size:25px;">Right High S<tspan x="251.562px " y="135.161px ">a</tspan>mple<tspan x="319.75px " y="135.161px ">s</tspan></text>
    </g>
    <g transform="matrix(1,0,0,1.1978,16.529,-28.1422)">
        <path d="M614.681,150.309L614.681,179.235C614.681,187.217 606.919,193.698 597.358,193.698L502.951,193.698C493.39,193.698 485.628,187.217 485.628,179.235L485.628,150.309C485.628,142.327 493.39,135.846 502.951,135.846L597.358,135.846C606.919,135.846 614.681,142.327 614.681,150.309Z" style="fill:rgb(203,47,234);fill-opacity:0.53;"/>
        <path d="M615.931,150.309L615.931,179.235C615.931,187.793 607.609,194.741 597.358,194.741L502.951,194.741C492.7,194.741 484.378,187.793 484.378,179.235L484.378,150.309C484.378,141.751 492.7,134.802 502.951,134.802L597.358,134.802C607.609,134.802 615.931,141.751 615.931,150.309ZM614.681,150.309C614.681,142.327 606.919,135.846 597.358,135.846L502.951,135.846C493.39,135.846 485.628,142.327 485.628,150.309L485.628,179.235C485.628,187.217 493.39,193.698 502.951,193.698L597.358,193.698C606.919,193.698 614.681,187.217 614.681,179.235L614.681,150.309Z"/>
    </g>
    <g transform="matrix(1,0,0,1.1978,16.529,50.0529)">
        <path d="M614.681,150.309L614.681,179.235C614.681,187.217 606.919,193.698 597.358,193.698L502.951,193.698C493.39,193.698 485.628,187.217 485.628,179.235L485.628,150.309C485.628,142.327 493.39,135.846 502.951,135.846L597.358,135.846C606.919,135.846 614.681,142.327 614.681,150.309Z" style="fill:rgb(45,152,233);fill-opacity:0.61;"/>
        <path d="M615.931,150.309L615.931,179.235C615.931,187.793 607.609,194.741 597.358,194.741L502.951,194.741C492.7,194.741 484.378,187.793 484.378,179.235L484.378,150.309C484.378,141.751 492.7,134.802 502.951,134.802L597.358,134.802C607.609,134.802 615.931,141.751 615.931,150.309ZM614.681,150.309C614.681,142.327 606.919,135.846 597.358,135.846L502.951,135.846C493.39,135.846 485.628,142.327 485.628,150.309L485.628,179.235C485.628,187.217 493.39,193.698 502.951,193.698L597.358,193.698C606.919,193.698 614.681,187.217 614.681,179.235L614.681,150.309Z"/>
    </g>
    <g transform="matrix(1,0,0,1.1978,16.529,128.248)">
        <path d="M614.681,150.309L614.681,179.235C614.681,187.217 606.919,193.698 597.358,193.698L502.951,193.698C493.39,193.698 485.628,187.217 485.628,179.235L485.628,150.309C485.628,142.327 493.39,135.846 502.951,135.846L597.358,135.846C606.919,135.846 614.681,142.327 614.681,150.309Z" style="fill:rgb(0,231,195);"/>
        <path d="M615.931,150.309L615.931,179.235C615.931,187.793 607.609,194.741 597.358,194.741L502.951,194.741C492.7,194.741 484.378,187.793 484.378,179.235L484.378,150.309C484.378,141.751 492.7,134.802 502.951,134.802L597.358,134.802C607.609,134.802 615.931,141.751 615.931,150.309ZM614.681,150.309C614.681,142.327 606.919,135.846 597.358,135.846L502.951,135.846C493.39,135.846 485.628,142.327 485.628,150.309L485.628,179.235C485.628,187.217 493.39,193.698 502.951,193.698L597.358,193.698C606.919,193.698 614.681,187.217 614.681,179.235L614.681,150.309Z"/>
    </g>
    <g transform="matrix(1,0,0,1,101.081,367.453)">
        <rect x="101.646" y="92.616" width="225.049" height="69.295" style="fill:rgb(190,255,0);"/>
        <path d="M327.945,92.616L327.945,161.911C327.945,162.601 327.385,163.161 326.695,163.161L101.646,163.161C100.955,163.161 100.396,162.601 100.396,161.911L100.396,92.616C100.396,91.926 100.955,91.366 101.646,91.366L326.695,91.366C327.385,91.366 327.945,91.926 327.945,92.616ZM326.695,92.616L101.646,92.616L101.646,161.911L326.695,161.911L326.695,92.616Z"/>
    </g>
    <g transform="matrix(1,0,0,1,387.797,42.2762)">
        <g transform="matrix(25,0,0,25,226.482,135.161)">
        </g>
        <text x="131.292px" y="135.161px" style="font-family:'Aptos', sans-serif;font-size:25px;">Lo<tspan x="157.39px 175.408px 189.312px 202.593px 214.336px " y="135.161px 135.161px 135.161px 135.161px 135.161px ">wpass</tspan></text>
    </g>
    <g transform="matrix(1,0,0,1,387.797,120.471)">
        <g transform="matrix(25,0,0,25,232.5,135.161)">
        </g>
        <text x="125.274px" y="135.161px" style="font-family:'Aptos', sans-serif;font-size:25px;">Bandp<tspan x="195.33px 208.611px 220.354px " y="135.161px 135.161px 135.161px ">ass</tspan></text>
    </g>
    <g transform="matrix(1,0,0,1,387.797,198.666)">
        <g transform="matrix(25,0,0,25,229.192,135.161)">
        </g>
        <text x="128.582px" y="135.161px" style="font-family:'Aptos', sans-serif;font-size:25px;">Highp<tspan x="192.022px 205.303px 217.046px " y="135.161px 135.161px 135.161px ">ass</tspan></text>
    </g>
    <g transform="matrix(1,0,0,1,101.081,367.453)">
        <g transform="matrix(25,0,0,25,291.874,135.161)">
        </g>
        <text x="137.102px" y="135.161px" style="font-family:'Aptos', sans-serif;font-size:25px;">Right S<tspan x="211.54px " y="135.161px ">a</tspan>mple<tspan x="279.728px " y="135.161px ">s</tspan></text>
    </g>
    <g transform="matrix(1,0,0,1.03787,0,-9.36961)">
        <g transform="matrix(1,-0,-0,0.963512,-0,9.02773)">
            <path d="M189.208,239.953L200.403,247.417L189.208,254.881" style="fill:none;stroke:black;stroke-width:2.58px;"/>
            <path d="M152.535,163.378L152.504,247.417L200.403,247.417" style="fill:none;stroke:black;stroke-width:2.58px;stroke-linejoin:round;stroke-miterlimit:1.5;"/>
        </g>
    </g>
    <g transform="matrix(1.19443,0,0,4.10899,-39.4163,-520.54)">
        <g transform="matrix(0.837219,-0,-0,0.243369,33.0001,126.683)">
            <path d="M189.208,488.631L200.403,496.095L189.208,503.559" style="fill:none;stroke:black;stroke-width:2.58px;"/>
            <path d="M142.776,163.378L142.739,496.095L200.403,496.095" style="fill:none;stroke:black;stroke-width:2.58px;stroke-linejoin:round;stroke-miterlimit:1.5;"/>
        </g>
    </g>
    <path d="M488.684,161.674L499.833,169.207L488.591,176.601" style="fill:none;stroke:black;stroke-width:2.58px;"/>
    <path d="M429.243,222.306C429.243,222.306 462.482,223.43 462.36,198.195C462.233,171.828 491.305,169.363 499.833,169.207" style="fill:none;stroke:black;stroke-width:2.58px;stroke-linejoin:round;stroke-miterlimit:1.5;"/>
    <g transform="matrix(1,0,0,-0.991646,0,494.112)">
        <g transform="matrix(1,0,0,-1.00842,-0,498.275)">
            <path d="M488.591,318.925L499.833,326.319L488.684,333.852" style="fill:none;stroke:black;stroke-width:2.58px;"/>
            <path d="M429.243,273.664C429.243,273.664 462.482,272.549 462.36,297.573C462.233,323.72 491.305,326.164 499.833,326.319" style="fill:none;stroke:black;stroke-width:2.58px;stroke-linejoin:round;stroke-miterlimit:1.5;"/>
        </g>
    </g>
    <path d="M488.67,239.894L499.833,247.407L488.605,254.822" style="fill:none;stroke:black;stroke-width:2.58px;"/>
    <path d="M429.243,247.099C429.243,247.099 487.394,247.353 499.833,247.407" style="fill:none;stroke:black;stroke-width:2.58px;stroke-linejoin:round;stroke-miterlimit:1.5;"/>
    <g transform="matrix(0.904871,-0.000352195,-0.000346701,0.999998,244.296,-78.0178)">
        <g transform="matrix(1.10513,0.000389222,0.00038315,1,-269.949,77.9229)">
            <path d="M685.112,161.698L696.274,169.212L685.046,176.626" style="fill:none;stroke:black;stroke-width:2.58px;"/>
            <path d="M632.62,168.93C632.62,168.93 684.568,169.16 696.274,169.212" style="fill:none;stroke:black;stroke-width:2.58px;stroke-linejoin:round;stroke-miterlimit:1.5;"/>
        </g>
    </g>
    <g transform="matrix(0.904871,-0.000352195,-0.000346701,0.999998,244.296,-0.14063)">
        <g transform="matrix(1.10513,0.000389222,0.00038315,1,-269.979,0.0455451)">
            <path d="M685.112,239.576L696.274,247.089L685.046,254.503" style="fill:none;stroke:black;stroke-width:2.58px;"/>
            <path d="M632.62,246.807C632.62,246.807 684.568,247.037 696.274,247.089" style="fill:none;stroke:black;stroke-width:2.58px;stroke-linejoin:round;stroke-miterlimit:1.5;"/>
        </g>
    </g>
    <g transform="matrix(0.904871,-0.000352195,-0.000346701,0.999998,244.296,79.7073)">
        <g transform="matrix(1.10513,0.000389222,0.00038315,1,-270.01,-79.8025)">
            <path d="M685.112,319.424L696.274,326.937L685.046,334.351" style="fill:none;stroke:black;stroke-width:2.58px;"/>
            <path d="M632.62,326.655C632.62,326.655 684.568,326.885 696.274,326.937" style="fill:none;stroke:black;stroke-width:2.58px;stroke-linejoin:round;stroke-miterlimit:1.5;"/>
        </g>
    </g>
    <g transform="matrix(0.919212,-0.000352195,-0.000352195,0.999998,237.097,171.698)">
        <g transform="matrix(1.08789,0.00038315,0.00038315,1,-258.001,-171.789)">
            <path d="M685.111,411.415L696.274,418.927L685.046,426.342" style="fill:none;stroke:black;stroke-width:2.58px;"/>
            <path d="M631.575,418.645C631.575,418.645 684.455,418.876 696.274,418.927" style="fill:none;stroke:black;stroke-width:2.58px;stroke-linejoin:round;stroke-miterlimit:1.5;"/>
        </g>
    </g>
    <g transform="matrix(0.919212,-0.000352195,-0.000352195,0.999998,237.097,249.575)">
        <g transform="matrix(1.08789,0.00038315,0.00038315,1,-258.031,-249.666)">
            <path d="M685.111,489.292L696.274,496.805L685.046,504.219" style="fill:none;stroke:black;stroke-width:2.58px;"/>
            <path d="M631.575,496.523C631.575,496.523 684.455,496.753 696.274,496.805" style="fill:none;stroke:black;stroke-width:2.58px;stroke-linejoin:round;stroke-miterlimit:1.5;"/>
        </g>
    </g>
    <g transform="matrix(0.919212,-0.000352195,-0.000352195,0.999998,237.097,329.423)">
        <g transform="matrix(1.08789,0.00038315,0.00038315,1,-258.061,-329.514)">
            <path d="M685.111,569.14L696.274,576.653L685.046,584.067" style="fill:none;stroke:black;stroke-width:2.58px;"/>
            <path d="M631.575,576.37C631.575,576.37 684.455,576.601 696.274,576.653" style="fill:none;stroke:black;stroke-width:2.58px;stroke-linejoin:round;stroke-miterlimit:1.5;"/>
        </g>
    </g>
    <g transform="matrix(1,0,0,1.1978,16.8933,219.886)">
        <path d="M614.681,150.309L614.681,179.235C614.681,187.217 606.919,193.698 597.358,193.698L502.951,193.698C493.39,193.698 485.628,187.217 485.628,179.235L485.628,150.309C485.628,142.327 493.39,135.846 502.951,135.846L597.358,135.846C606.919,135.846 614.681,142.327 614.681,150.309Z" style="fill:rgb(203,47,234);fill-opacity:0.53;"/>
        <path d="M615.931,150.309L615.931,179.235C615.931,187.793 607.609,194.741 597.358,194.741L502.951,194.741C492.7,194.741 484.378,187.793 484.378,179.235L484.378,150.309C484.378,141.751 492.7,134.802 502.951,134.802L597.358,134.802C607.609,134.802 615.931,141.751 615.931,150.309ZM614.681,150.309C614.681,142.327 606.919,135.846 597.358,135.846L502.951,135.846C493.39,135.846 485.628,142.327 485.628,150.309L485.628,179.235C485.628,187.217 493.39,193.698 502.951,193.698L597.358,193.698C606.919,193.698 614.681,187.217 614.681,179.235L614.681,150.309Z"/>
    </g>
    <g transform="matrix(1,0,0,1.1978,16.8933,298.081)">
        <path d="M614.681,150.309L614.681,179.235C614.681,187.217 606.919,193.698 597.358,193.698L502.951,193.698C493.39,193.698 485.628,187.217 485.628,179.235L485.628,150.309C485.628,142.327 493.39,135.846 502.951,135.846L597.358,135.846C606.919,135.846 614.681,142.327 614.681,150.309Z" style="fill:rgb(45,152,233);fill-opacity:0.61;"/>
        <path d="M615.931,150.309L615.931,179.235C615.931,187.793 607.609,194.741 597.358,194.741L502.951,194.741C492.7,194.741 484.378,187.793 484.378,179.235L484.378,150.309C484.378,141.751 492.7,134.802 502.951,134.802L597.358,134.802C607.609,134.802 615.931,141.751 615.931,150.309ZM614.681,150.309C614.681,142.327 606.919,135.846 597.358,135.846L502.951,135.846C493.39,135.846 485.628,142.327 485.628,150.309L485.628,179.235C485.628,187.217 493.39,193.698 502.951,193.698L597.358,193.698C606.919,193.698 614.681,187.217 614.681,179.235L614.681,150.309Z"/>
    </g>
    <g transform="matrix(1,0,0,1.1978,16.8933,376.276)">
        <path d="M614.681,150.309L614.681,179.235C614.681,187.217 606.919,193.698 597.358,193.698L502.951,193.698C493.39,193.698 485.628,187.217 485.628,179.235L485.628,150.309C485.628,142.327 493.39,135.846 502.951,135.846L597.358,135.846C606.919,135.846 614.681,142.327 614.681,150.309Z" style="fill:rgb(0,231,195);"/>
        <path d="M615.931,150.309L615.931,179.235C615.931,187.793 607.609,194.741 597.358,194.741L502.951,194.741C492.7,194.741 484.378,187.793 484.378,179.235L484.378,150.309C484.378,141.751 492.7,134.802 502.951,134.802L597.358,134.802C607.609,134.802 615.931,141.751 615.931,150.309ZM614.681,150.309C614.681,142.327 606.919,135.846 597.358,135.846L502.951,135.846C493.39,135.846 485.628,142.327 485.628,150.309L485.628,179.235C485.628,187.217 493.39,193.698 502.951,193.698L597.358,193.698C606.919,193.698 614.681,187.217 614.681,179.235L614.681,150.309Z"/>
    </g>
    <g transform="matrix(1,0,0,1,388.161,290.304)">
        <g transform="matrix(25,0,0,25,226.482,135.161)">
        </g>
        <text x="131.292px" y="135.161px" style="font-family:'Aptos', sans-serif;font-size:25px;">Lo<tspan x="157.39px 175.408px 189.312px 202.593px 214.336px " y="135.161px 135.161px 135.161px 135.161px 135.161px ">wpass</tspan></text>
    </g>
    <g transform="matrix(1,0,0,1,388.161,368.5)">
        <g transform="matrix(25,0,0,25,232.5,135.161)">
        </g>
        <text x="125.274px" y="135.161px" style="font-family:'Aptos', sans-serif;font-size:25px;">Bandp<tspan x="195.33px 208.611px 220.354px " y="135.161px 135.161px 135.161px ">ass</tspan></text>
    </g>
    <g transform="matrix(1,0,0,1,388.161,446.695)">
        <g transform="matrix(25,0,0,25,229.192,135.161)">
        </g>
        <text x="128.582px" y="135.161px" style="font-family:'Aptos', sans-serif;font-size:25px;">Highp<tspan x="192.022px 205.303px 217.046px " y="135.161px 135.161px 135.161px ">ass</tspan></text>
    </g>
    <g transform="matrix(1,0,0,1,0.364229,248.028)">
        <g transform="matrix(1,-0,-0,1,-0.364229,-248.028)">
            <path d="M489.049,409.702L500.197,417.236L488.955,424.629" style="fill:none;stroke:black;stroke-width:2.58px;"/>
            <path d="M429.607,470.334C429.607,470.334 462.846,471.459 462.724,446.223C462.597,419.856 491.669,417.392 500.197,417.236" style="fill:none;stroke:black;stroke-width:2.58px;stroke-linejoin:round;stroke-miterlimit:1.5;"/>
        </g>
    </g>
    <g transform="matrix(1,0,0,-0.991646,0.364229,742.141)">
        <g transform="matrix(1,0,0,-1.00842,-0.364229,748.393)">
            <path d="M488.956,566.953L500.197,574.347L489.048,581.88" style="fill:none;stroke:black;stroke-width:2.58px;"/>
            <path d="M429.607,521.692C429.607,521.692 462.846,520.577 462.724,545.601C462.597,571.748 491.669,574.192 500.197,574.347" style="fill:none;stroke:black;stroke-width:2.58px;stroke-linejoin:round;stroke-miterlimit:1.5;"/>
        </g>
    </g>
    <g transform="matrix(1,0,0,1,0.364229,248.028)">
        <g transform="matrix(1,-0,-0,1,-0.364229,-248.028)">
            <path d="M489.034,487.923L500.197,495.435L488.969,502.85" style="fill:none;stroke:black;stroke-width:2.58px;"/>
            <path d="M429.607,495.127C429.607,495.127 487.758,495.381 500.197,495.435" style="fill:none;stroke:black;stroke-width:2.58px;stroke-linejoin:round;stroke-miterlimit:1.5;"/>
        </g>
    </g>
</svg>
