<?xml version="1.0" encoding="UTF-8" standalone="no"?><!DOCTYPE svg PUBLIC "-//W3C//DTD SVG 1.1//EN" "http://www.w3.org/Graphics/SVG/1.1/DTD/svg11.dtd"><svg width="100%" height="100%" viewBox="0 0 287 167" version="1.1" xmlns="http://www.w3.org/2000/svg" xmlns:xlink="http://www.w3.org/1999/xlink" xml:space="preserve" xmlns:serif="http://www.serif.com/" style="fill-rule:evenodd;clip-rule:evenodd;stroke-linecap:round;stroke-linejoin:round;stroke-miterlimit:1.5;"><rect x="12.48" y="12" width="260.16" height="132.24" style="fill:#e6e6e6;"/><path d="M273.64,12l0,132.24c0,0.552 -0.448,1 -1,1l-260.16,0c-0.552,-0 -1,-0.448 -1,-1l0,-132.24c-0,-0.552 0.448,-1 1,-1l260.16,0c0.552,0 1,0.448 1,1Zm-1,0l-260.16,0l0,132.24l260.16,0l0,-132.24Z"/><g><circle cx="76.518" cy="48.313" r="7.638" style="fill:#00fdff;fill-opacity:0.45;stroke:#5d5d5d;stroke-width:0.25px;"/><circle cx="76.518" cy="100.967" r="7.638" style="fill:#00fdff;fill-opacity:0.45;stroke:#5d5d5d;stroke-width:0.25px;"/><circle cx="206.202" cy="100.967" r="7.638" style="fill:#00fdff;fill-opacity:0.45;stroke:#5d5d5d;stroke-width:0.25px;"/><circle cx="206.202" cy="48.313" r="7.638" style="fill:#00fdff;fill-opacity:0.45;stroke:#5d5d5d;stroke-width:0.25px;"/><rect x="76.518" y="40.675" width="129.684" height="67.93" style="fill:#3bff00;fill-opacity:0.45;stroke:#5d5d5d;stroke-width:0.25px;"/><rect x="68.88" y="48.313" width="144.96" height="52.654" style="fill:#0069ff;fill-opacity:0.45;stroke:#5d5d5d;stroke-width:0.25px;"/></g><g><rect x="33.673" y="151.92" width="19.92" height="7.44" style="fill:#7df0f1;"/><g transform="matrix(5.21783,0,0,5.21783,50.8239,157.432)"></g><text x="36.48px" y="157.432px" style="font-family:'Consolas', monospace;font-size:5.218px;">Kreis</text></g><g><rect x="56.598" y="151.92" width="34.32" height="7.44" style="fill:#98f17d;"/><g transform="matrix(5.21783,0,0,5.21783,88.0931,157.432)"></g><text x="59.405px" y="157.432px" style="font-family:'Consolas', monospace;font-size:5.218px;">Rechteck 1</text></g><g><rect x="94.278" y="151.935" width="34.32" height="7.44" style="fill:#7dadf1;"/><g transform="matrix(5.21783,0,0,5.21783,125.773,157.448)"></g><text x="97.085px" y="157.448px" style="font-family:'Consolas', monospace;font-size:5.218px;">Rechteck 2</text></g><g><rect x="132.678" y="151.935" width="29.04" height="7.44" style="fill:#e6e6e6;"/><g transform="matrix(5.21783,0,0,5.21783,158.435,157.448)"></g><text x="135.485px" y="157.448px" style="font-family:'Consolas', monospace;font-size:5.218px;">Leinwand</text></g><path d="M68.88,100.967l0,7.993l7.638,0" style="fill:none;stroke:#5d5d5d;stroke-width:0.25px;stroke-dasharray:0.25,1.25,0,0,0,0;"/><path d="M74.898,101.867l1.35,-0.9l-1.35,-0.9" style="fill:none;stroke:#000;stroke-width:0.3px;stroke-linejoin:miter;stroke-miterlimit:10;"/><path d="M70.5,101.867l-1.35,-0.9l1.35,-0.9" style="fill:none;stroke:#000;stroke-width:0.3px;stroke-linejoin:miter;stroke-miterlimit:10;"/><path d="M76.248,100.967l-7.098,-0" style="fill:none;stroke:#000;stroke-width:0.3px;"/><path d="M143.46,42.296l-0.9,-1.35l-0.9,1.35" style="fill:none;stroke:#000;stroke-width:0.3px;stroke-linejoin:miter;stroke-miterlimit:10;"/><path d="M143.46,106.984l-0.9,1.35l-0.9,-1.35" style="fill:none;stroke:#000;stroke-width:0.3px;stroke-linejoin:miter;stroke-miterlimit:10;"/><path d="M142.56,40.946l0,67.388" style="fill:none;stroke:#000;stroke-width:0.3px;"/><path d="M70.5,73.74l-1.35,0.9l1.35,0.9" style="fill:none;stroke:#000;stroke-width:0.3px;stroke-linejoin:miter;stroke-miterlimit:10;"/><path d="M212.22,73.74l1.35,0.9l-1.35,0.9" style="fill:none;stroke:#000;stroke-width:0.3px;stroke-linejoin:miter;stroke-miterlimit:10;"/><path d="M69.15,74.64l144.42,0" style="fill:none;stroke:#000;stroke-width:0.3px;"/><path d="M14.1,108.06l-1.35,0.9l1.35,0.9" style="fill:none;stroke:#000;stroke-width:0.3px;stroke-linejoin:miter;stroke-miterlimit:10;"/><path d="M67.768,108.06l0.9,0.9l-0.9,0.9" style="fill:none;stroke:#000;stroke-width:0.3px;stroke-linejoin:miter;stroke-miterlimit:10;"/><path d="M12.75,108.96l55.918,0" style="fill:none;stroke:#000;stroke-width:0.3px;"/><path d="M69.78,110.072l-0.9,-0.9l-0.9,0.9" style="fill:none;stroke:#000;stroke-width:0.3px;stroke-linejoin:miter;stroke-miterlimit:10;"/><path d="M69.78,142.975l-0.9,1.35l-0.9,-1.35" style="fill:none;stroke:#000;stroke-width:0.3px;stroke-linejoin:miter;stroke-miterlimit:10;"/><path d="M68.88,109.172l0,35.153" style="fill:none;stroke:#000;stroke-width:0.3px;"/><g transform="matrix(5.60932,0,0,5.60932,75.2325,98.88)"></g><text x="72.148px" y="98.88px" style="font-family:'Consolas', monospace;font-size:5.609px;">r</text><g transform="matrix(5.60932,0,0,5.60932,55.9646,106.157)"></g><text x="25.124px" y="106.157px" style="font-family:'Consolas', monospace;font-size:5.609px;">position.x</text><g transform="matrix(5.60932,0,0,5.60932,105.765,128.159)"></g><text x="74.924px" y="128.159px" style="font-family:'Consolas', monospace;font-size:5.609px;">position.y</text><g transform="matrix(5.60932,0,0,5.60932,125.503,73.44)"></g><text x="88.494px" y="73.44px" style="font-family:'Consolas', monospace;font-size:5.609px;">dimensions.x</text><g transform="matrix(5.60932,0,0,5.60932,181.423,61.44)"></g><text x="144.414px" y="61.44px" style="font-family:'Consolas', monospace;font-size:5.609px;">dimensions.y</text><g><path d="M67.2,107.28l3.36,3.36" style="fill:none;stroke:#e2001e;stroke-width:1px;"/><path d="M67.2,110.64l3.36,-3.36" style="fill:none;stroke:#e2001e;stroke-width:1px;"/></g></svg>